<svg version="1.1" id="Layer_1" xmlns="http://www.w3.org/2000/svg" xmlns:xlink="http://www.w3.org/1999/xlink" x="0px" y="0px"
	 width="100%" viewBox="0 0 192 192" enable-background="new 0 0 192 192" xml:space="preserve">
<path fill="#1A1B1D" opacity="1.000000" stroke="none" 
	d="
M150.080917,176.245544 
	C148.269623,176.355499 146.458344,176.560944 144.647034,176.561234 
	C111.393967,176.566681 78.140900,176.547562 44.447094,176.008942 
	C44.334400,172.698151 44.662445,169.912048 45.424026,167.060028 
	C47.891262,166.944641 49.924965,166.895172 52.398727,166.923157 
	C55.198071,166.990143 57.557354,166.979645 60.336887,167.028702 
	C67.833107,167.391357 74.909065,167.694458 82.454628,167.997940 
	C92.623260,167.998627 102.322304,167.998947 112.487556,167.996872 
	C114.950775,167.993881 116.955391,168.105133 118.943222,167.969803 
	C123.318619,167.671936 127.685539,167.249573 132.507965,166.933167 
	C136.019104,166.937042 139.078217,166.885727 142.459900,166.897186 
	C143.217102,166.908478 143.651718,166.856995 144.503723,166.862381 
	C146.612320,166.982178 148.303528,167.045135 149.993317,167.559967 
	C150.021561,170.756424 150.051239,173.500977 150.080917,176.245544 
z"/>
<path fill="#18191B" opacity="1.000000" stroke="none" 
	d="
M182.012161,116.944214 
	C182.206100,126.222038 182.400024,135.499863 182.163437,145.329163 
	C179.488861,145.886612 177.244797,145.892593 174.939529,145.491226 
	C174.581894,143.161819 174.058548,141.243210 174.029266,139.317078 
	C173.917099,131.936035 173.963593,124.552574 174.393799,117.098557 
	C177.228546,116.999466 179.620361,116.971840 182.012161,116.944214 
z"/>
<path fill="#232424" opacity="1.000000" stroke="none" 
	d="
M182.759338,46.495796 
	C182.689224,59.465687 182.619110,72.435577 181.868958,85.737167 
	C178.728989,86.182861 176.269043,86.296837 173.487823,86.374985 
	C172.750931,86.232178 172.335297,86.125198 171.998932,85.554260 
	C172.065216,72.036743 172.052231,58.983166 172.034058,45.982376 
	C172.028870,46.035164 171.922867,46.039116 172.382568,46.041260 
	C176.147949,46.194199 179.453644,46.344997 182.759338,46.495796 
M180.009018,52.701797 
	C179.942368,50.443798 180.599899,47.824295 176.782364,47.966660 
	C173.238861,48.098812 174.009506,50.619961 173.997833,52.625889 
	C173.944626,61.770508 173.990265,70.915665 173.963791,80.060516 
	C173.957611,82.197716 173.976669,84.027267 176.976196,84.036682 
	C179.958267,84.046051 180.029236,82.257446 180.021500,80.097336 
	C179.989899,71.285057 180.008835,62.472599 180.009018,52.701797 
z"/>
<path fill="#0A0A0C" opacity="1.000000" stroke="none" 
	d="
M142.029480,37.060234 
	C144.897644,36.754868 147.761551,36.245041 150.634842,36.185047 
	C157.428680,36.043182 164.226990,36.115173 171.489075,36.088341 
	C171.954681,36.075985 172.100739,36.536221 172.122223,37.171394 
	C172.195236,39.536556 172.246780,41.266544 172.205566,43.370262 
	C172.049500,44.509033 171.986191,45.274075 171.922882,46.039116 
	C171.922867,46.039116 172.028870,46.035164 171.670044,46.025955 
	C161.522018,46.006126 151.732788,45.995506 142.033768,45.660671 
	C142.063019,44.893101 142.002060,44.449749 142.049438,43.582951 
	C142.115005,41.126415 142.072250,39.093327 142.029480,37.060234 
M148.711273,44.003201 
	C154.688644,44.001320 160.674088,44.159916 166.636398,43.859192 
	C167.798386,43.800591 168.870331,41.956791 169.983810,40.936413 
	C168.826721,39.959908 167.705093,38.193008 166.506592,38.139206 
	C160.209839,37.856548 153.887100,37.858356 147.589859,38.135769 
	C146.366776,38.189655 144.497803,39.708782 144.177490,40.890938 
	C143.428268,43.655998 145.517258,44.155346 148.711273,44.003201 
z"/>
<path fill="#030406" opacity="1.000000" stroke="none" 
	d="
M21.984560,85.955444 
	C21.551308,85.948784 21.118055,85.942116 20.336720,85.589249 
	C19.962851,84.837921 19.937067,84.432816 19.943636,83.557068 
	C19.975990,71.565941 19.975990,60.045437 19.975990,48.097771 
	C17.529083,48.097771 15.749567,48.097771 13.633327,48.079437 
	C12.847452,48.043919 12.398301,48.026741 11.949149,48.009560 
	C11.924321,47.564579 11.899493,47.119598 12.456091,46.422653 
	C16.039005,46.115608 19.040495,46.060528 22.024590,45.966972 
	C22.007195,45.928493 21.923351,45.938629 21.890615,46.410240 
	C21.881136,59.935623 21.904394,72.989395 21.960096,86.033051 
	C21.992540,86.022934 21.984560,85.955444 21.984560,85.955444 
z"/>
<path fill="#212224" opacity="1.000000" stroke="none" 
	d="
M19.911282,84.027702 
	C19.937067,84.432816 19.962851,84.837921 20.012293,85.546570 
	C17.644062,85.916840 15.252175,85.983574 12.411424,86.051476 
	C11.868769,73.672623 11.774979,61.292603 11.815168,48.461071 
	C12.398301,48.026741 12.847452,48.043919 13.640413,48.537094 
	C13.984223,60.458611 13.984223,71.904137 13.984223,83.764381 
	C16.349773,83.869476 18.130527,83.948586 19.911282,84.027702 
z"/>
<path fill="#411F03" opacity="1.000000" stroke="none" 
	d="
M92.515808,15.596563 
	C95.432892,15.596563 98.349976,15.596563 102.062073,15.596563 
	C102.062073,18.187386 102.062073,20.699556 102.027031,23.932760 
	C102.060646,25.114571 102.129295,25.575352 102.090584,25.953003 
	C101.983215,25.869875 101.729240,25.964411 101.365761,25.860891 
	C100.661377,24.080320 100.615150,22.258171 99.883980,20.773291 
	C99.324745,19.637589 97.899384,18.928371 96.859291,18.029446 
	C95.908623,19.354181 94.386971,20.571768 94.114487,22.023771 
	C93.301132,26.357954 92.977539,30.784046 92.425995,34.752571 
	C92.216888,32.232449 92.044434,30.134001 91.940681,27.720562 
	C91.980186,26.980659 91.950981,26.555750 92.005005,25.864408 
	C92.057686,25.414415 92.027138,25.230856 92.069313,24.653969 
	C92.266617,21.372616 92.391212,18.484589 92.515808,15.596563 
z"/>
<path fill="#151617" opacity="1.000000" stroke="none" 
	d="
M20.000023,145.936066 
	C17.612522,145.990952 15.225023,146.045837 12.388962,146.093719 
	C11.840910,136.668350 11.741418,127.249992 12.027531,117.359360 
	C12.940372,116.978233 13.467609,117.069374 13.997349,117.618805 
	C13.999851,126.520355 13.999851,134.963623 13.999851,143.986191 
	C16.420599,143.986191 18.207567,143.986191 19.999062,144.311157 
	C20.002401,145.069443 20.001213,145.502747 20.000023,145.936066 
z"/>
<path fill="#0E1012" opacity="1.000000" stroke="none" 
	d="
M41.767166,176.635910 
	C41.561176,173.756851 41.666355,170.774261 42.235481,167.401428 
	C43.463112,167.049454 44.226803,167.087692 44.990490,167.125946 
	C44.662445,169.912048 44.334400,172.698151 43.996803,175.874237 
	C43.350948,176.353607 42.714642,176.442993 41.767166,176.635910 
z"/>
<path fill="#0E1012" opacity="1.000000" stroke="none" 
	d="
M152.137512,168.029007 
	C152.114838,170.410843 152.092163,172.792664 152.111694,175.620285 
	C151.696075,176.207504 151.238220,176.348923 150.430634,176.367950 
	C150.051239,173.500977 150.021561,170.756424 150.306793,167.505585 
	C151.044174,167.024170 151.466644,167.049042 151.920364,167.320953 
	C151.951614,167.567978 152.137527,168.029007 152.137512,168.029007 
z"/>
<path fill="#F7F4F1" opacity="1.000000" stroke="none" 
	d="
M142.137329,166.834412 
	C139.078217,166.885727 136.019104,166.937042 132.475525,166.733780 
	C131.991058,166.479218 131.845947,166.102234 131.930542,165.649109 
	C132.211609,155.491928 132.211609,155.491928 142.018295,155.255920 
	C142.015854,155.446686 141.988144,155.827240 141.967346,156.201523 
	C142.038269,157.064987 142.129974,157.554184 142.182373,158.467285 
	C142.178986,160.592667 142.214905,162.294113 142.196411,164.250000 
	C142.193619,164.670044 142.245224,164.835663 142.257172,165.305710 
	C142.190781,166.018234 142.164047,166.426331 142.137329,166.834412 
z"/>
<path fill="#E58946" opacity="1.000000" stroke="none" 
	d="
M45.424026,167.060028 
	C44.226803,167.087692 43.463112,167.049454 42.316704,167.000473 
	C41.933983,166.989731 42.003681,166.997864 41.984589,166.582489 
	C41.593132,162.811859 41.220768,159.456604 40.915276,156.049149 
	C40.982147,155.996933 41.123856,155.903610 41.567223,155.989441 
	C45.348274,156.049561 48.685966,156.023834 52.030109,156.453644 
	C52.010597,160.221359 51.984634,163.533539 51.958672,166.845703 
	C49.924965,166.895172 47.891262,166.944641 45.424026,167.060028 
z"/>
<path fill="#FAF8F6" opacity="1.000000" stroke="none" 
	d="
M52.398731,166.923172 
	C51.984634,163.533539 52.010597,160.221359 52.018803,156.473877 
	C52.001041,156.038559 51.954212,156.031174 52.293411,156.106201 
	C53.090237,156.136475 53.547863,156.091736 54.443573,156.133484 
	C57.110008,156.219971 59.338360,156.219971 61.915424,156.219971 
	C61.915424,159.837097 61.915424,162.895142 61.609146,165.991028 
	C60.840794,166.342285 60.378712,166.655716 59.916634,166.969147 
	C57.557354,166.979645 55.198071,166.990143 52.398731,166.923172 
z"/>
<path fill="#E27F3A" opacity="1.000000" stroke="none" 
	d="
M142.459900,166.897186 
	C142.164047,166.426331 142.190781,166.018234 142.382751,165.200974 
	C142.695007,164.449081 142.595963,164.183685 142.250824,163.995575 
	C142.214905,162.294113 142.178986,160.592667 142.593887,158.459320 
	C145.382751,157.477997 147.720779,156.928528 150.279831,156.341309 
	C150.500839,156.303558 150.939804,156.395111 150.966095,156.601151 
	C150.992371,156.807190 151.054245,157.218002 151.260712,157.552826 
	C151.587952,160.280594 151.708740,162.673508 151.411865,165.049469 
	C148.691574,165.623489 146.388962,166.214508 144.086349,166.805527 
	C143.651718,166.856995 143.217102,166.908478 142.459900,166.897186 
z"/>
<path fill="#000000" opacity="1.000000" stroke="none" 
	d="
M112.021339,167.999268 
	C102.322304,167.998947 92.623260,167.998627 82.464149,167.745331 
	C82.016273,167.157074 82.028473,166.821793 82.108383,166.369202 
	C82.176094,166.251877 81.983765,166.061035 82.443283,166.166901 
	C92.608185,166.202621 102.313560,166.132477 111.922997,166.154144 
	C111.827057,166.245941 111.959724,166.475983 111.941345,166.730499 
	C111.955765,167.323105 111.988556,167.661179 112.021339,167.999268 
z"/>
<path fill="#241E1A" opacity="1.000000" stroke="none" 
	d="
M82.040672,166.486511 
	C82.028473,166.821793 82.016273,167.157074 81.994553,167.744965 
	C74.909065,167.694458 67.833107,167.391357 60.336887,167.028702 
	C60.378712,166.655716 60.840794,166.342285 62.080814,166.043411 
	C69.252731,166.200821 75.646698,166.343674 82.040672,166.486511 
z"/>
<path fill="#241E1A" opacity="1.000000" stroke="none" 
	d="
M112.487556,167.996872 
	C111.988556,167.661179 111.955765,167.323105 112.397461,166.603485 
	C119.196609,166.182037 125.521278,166.142136 131.845947,166.102234 
	C131.845947,166.102234 131.991058,166.479218 132.023499,166.678619 
	C127.685539,167.249573 123.318619,167.671936 118.943222,167.969803 
	C116.955391,168.105133 114.950775,167.993881 112.487556,167.996872 
z"/>
<path fill="#EA9758" opacity="1.000000" stroke="none" 
	d="
M144.503723,166.862381 
	C146.388962,166.214508 148.691574,165.623489 151.502304,165.316437 
	C152.074905,165.777328 152.139374,165.954269 152.125916,166.367157 
	C152.048019,166.603088 151.889114,167.073914 151.889114,167.073914 
	C151.466644,167.049042 151.044174,167.024170 150.308228,167.053696 
	C148.303528,167.045135 146.612320,166.982178 144.503723,166.862381 
z"/>
<path fill="#18191B" opacity="1.000000" stroke="none" 
	d="
M22.024590,45.966972 
	C21.995083,45.572083 21.948183,45.138710 21.931580,43.959274 
	C22.026812,40.857056 22.091745,38.500904 22.156679,36.144749 
	C22.156679,36.144749 22.149199,36.094101 22.124891,36.102112 
	C31.716129,36.108276 41.331673,36.106434 51.403961,36.158493 
	C51.889706,39.190926 51.918716,42.169456 51.974617,45.571739 
	C52.001507,45.995495 52.062374,45.937740 51.592224,45.989384 
	C41.389168,46.006897 31.656260,45.972763 21.923351,45.938629 
	C21.923351,45.938629 22.007195,45.928493 22.024590,45.966972 
M37.496952,43.998375 
	C40.480549,43.997082 43.504253,44.278732 46.429260,43.864105 
	C47.713696,43.682026 48.796974,42.080894 49.971592,41.124092 
	C48.879547,40.085648 47.825512,38.199867 46.689175,38.148899 
	C40.237698,37.859512 33.759850,37.859478 27.308384,38.148972 
	C26.172485,38.199944 25.118967,40.086807 24.027405,41.125835 
	C25.202702,42.082054 26.286776,43.682114 27.571762,43.864174 
	C30.496820,44.278618 33.520493,43.997066 37.496952,43.998375 
z"/>
<path fill="#1C1918" opacity="1.000000" stroke="none" 
	d="
M171.998047,145.986191 
	C172.025497,146.465302 172.052948,146.944427 172.166931,147.774536 
	C172.253433,150.733261 172.253433,153.341019 172.253433,156.315216 
	C168.770050,156.315216 165.818375,156.315216 162.534424,156.296844 
	C162.202148,156.278488 161.999954,156.009491 162.042831,155.554901 
	C162.085709,152.236435 162.085709,149.372543 162.085709,146.035324 
	C165.890167,146.035324 168.959045,146.035324 172.028503,146.017853 
	C172.029083,146.000366 171.998032,145.986191 171.998047,145.986191 
z"/>
<path fill="#101318" opacity="1.000000" stroke="none" 
	d="
M152.203827,166.131195 
	C152.139374,165.954269 152.074905,165.777328 151.919983,165.333405 
	C151.708740,162.673508 151.587952,160.280594 151.518219,157.482483 
	C151.740845,157.030426 151.912415,156.983536 152.493256,156.963562 
	C155.664932,156.714920 158.427353,156.439316 161.273621,156.375610 
	C161.357468,156.587509 161.766891,156.788040 161.766891,156.788040 
	C161.766891,156.788040 162.130081,156.512436 162.130081,156.512436 
	C162.139130,156.756332 162.148193,157.000229 162.248367,157.598709 
	C162.257843,159.909195 162.387329,161.908051 162.001831,163.802109 
	C161.820496,164.693069 160.648895,165.382507 159.065231,166.123047 
	C156.204224,166.098969 154.204025,166.115082 152.203827,166.131195 
z"/>
<path fill="#C5C6C6" opacity="1.000000" stroke="none" 
	d="
M162.093750,156.506195 
	C162.130081,156.512436 161.766891,156.788040 161.766891,156.788040 
	C161.766891,156.788040 161.357468,156.587509 161.480743,156.362366 
	C161.604019,156.137238 161.999954,156.009491 161.999954,156.009491 
	C161.999954,156.009491 162.202148,156.278488 162.111633,156.421295 
	C162.021133,156.564117 162.057434,156.499969 162.093750,156.506195 
z"/>
<path fill="#241E1A" opacity="1.000000" stroke="none" 
	d="
M174.939529,145.491226 
	C174.250977,145.937256 173.501236,145.975952 172.374756,146.000427 
	C171.998032,145.986191 172.029083,146.000366 172.063202,145.547989 
	C172.071686,135.687912 172.046066,126.280205 172.359116,116.867355 
	C173.144958,116.847641 173.592163,116.833076 174.039352,116.818512 
	C174.039352,116.818512 173.861145,116.960571 173.906006,117.065292 
	C173.963593,124.552574 173.917099,131.936035 174.029266,139.317078 
	C174.058548,141.243210 174.581894,143.161819 174.939529,145.491226 
z"/>
<path fill="#E07E3A" opacity="1.000000" stroke="none" 
	d="
M172.020462,116.872498 
	C172.046066,126.280205 172.071686,135.687912 172.062622,145.565460 
	C168.959045,146.035324 165.890167,146.035324 162.085709,146.035324 
	C162.085709,149.372543 162.085709,152.236435 162.042831,155.554901 
	C161.999954,156.009491 161.604019,156.137238 161.396896,156.150482 
	C158.427353,156.439316 155.664932,156.714920 152.494690,156.779877 
	C152.086868,156.569260 152.086472,156.201874 152.129791,155.901306 
	C152.212601,155.402191 152.252090,155.203644 152.420837,154.901550 
	C152.704575,154.451050 152.605911,154.183655 152.199463,153.531128 
	C152.144852,147.518005 152.144852,141.969620 152.144852,136.327866 
	C148.858490,136.327866 146.398376,136.327866 143.614410,136.222885 
	C142.839844,136.070953 142.389130,136.023987 141.975327,135.979797 
	C142.012238,135.982544 142.013321,136.056564 142.047058,135.596161 
	C142.080811,132.261276 142.080811,129.386795 142.080811,126.164986 
	C138.353348,126.164986 135.279892,126.164986 131.747742,126.130829 
	C128.274765,126.065849 125.260490,126.035019 122.186737,125.548935 
	C122.127251,122.184921 122.127251,119.276176 122.127251,116.129684 
	C119.286018,116.129684 117.288437,116.275833 115.320518,116.096504 
	C112.115219,115.804428 111.580551,117.391632 112.177795,120.455948 
	C112.028618,122.649696 111.947891,124.409630 111.422859,126.165253 
	C108.007896,126.209641 105.037224,126.258354 101.612335,126.239426 
	C98.108925,126.215767 95.059738,126.259766 91.559677,126.257339 
	C87.824326,126.199745 84.539841,126.188576 81.190613,125.728378 
	C81.137093,122.878326 81.148331,120.477303 81.384644,117.933044 
	C81.085999,117.571503 80.562294,117.353210 79.609634,117.068268 
	C77.447807,117.045967 75.714928,117.090302 73.648514,117.093033 
	C72.922867,120.048561 72.530739,123.045700 72.097160,125.962234 
	C72.055702,125.881630 71.877174,125.913132 71.428658,125.960999 
	C67.940025,126.057060 64.899910,126.105270 61.410378,126.148468 
	C58.079128,126.143448 55.197296,126.143448 51.983299,126.143448 
	C51.983299,129.893616 51.983299,132.974274 51.978523,136.024323 
	C51.973743,135.993729 52.032082,135.973068 51.578915,136.052155 
	C48.201393,136.131241 45.277035,136.131241 42.431606,136.131241 
	C41.965088,143.184738 41.544472,149.544174 41.123856,155.903610 
	C41.123856,155.903610 40.982147,155.996933 40.475815,155.999527 
	C37.288139,155.999710 34.606796,155.997299 31.925457,155.994888 
	C31.925457,155.994888 32.002850,155.996841 31.991547,155.575150 
	C31.980244,152.273132 31.980244,149.392792 31.980244,146.393814 
	C28.853138,146.240295 26.426697,146.121170 23.968641,145.691010 
	C23.335970,144.924149 22.734913,144.468353 22.055584,143.598785 
	C22.112835,135.179306 22.248358,127.173592 22.653240,119.074265 
	C22.712852,118.701843 22.503103,118.423027 22.184397,117.881256 
	C21.419277,117.329018 20.763117,117.039749 20.091146,116.572739 
	C20.075338,116.395004 20.083506,116.038208 20.083506,116.038208 
	C20.083506,116.038208 19.948860,116.022774 19.934998,115.956467 
	C20.361275,115.920715 20.801414,115.951263 22.025572,116.039413 
	C25.540932,116.041588 28.272272,115.986160 31.256794,115.919983 
	C31.590055,115.610786 31.670135,115.312347 31.811277,114.548264 
	C31.835672,105.379669 31.799004,96.676704 31.850214,87.637436 
	C31.959929,86.838028 31.981764,86.374939 32.004494,85.949493 
	C32.005386,85.987137 31.930241,85.994942 32.386116,86.041824 
	C35.886299,86.056839 38.930607,86.024963 42.363781,85.908447 
	C43.101971,85.492561 43.792110,85.109566 43.750820,84.837631 
	C42.687065,77.832069 46.947369,77.443100 52.090698,77.974136 
	C53.738949,78.144302 55.468155,78.248367 57.072224,77.933670 
	C58.798031,77.595078 60.420368,76.729126 62.463112,75.968323 
	C63.474323,73.405045 64.110275,70.966705 64.885147,67.995728 
	C87.184296,67.995728 109.616516,67.995728 132.478729,67.991226 
	C135.674606,67.683403 138.440506,67.380066 141.191650,67.319580 
	C141.362930,67.874901 141.637573,68.020981 142.058121,68.465332 
	C142.160294,74.280609 142.205124,79.631203 142.211487,85.237404 
	C142.452103,85.640228 142.731216,85.787460 143.473511,86.004471 
	C149.983582,86.046204 156.030441,86.018158 162.039383,85.991165 
	C162.001465,85.992226 162.001434,85.916359 162.042816,86.388885 
	C162.095184,93.629471 162.030609,100.398689 162.134186,107.165321 
	C162.305908,118.382309 160.188492,117.009148 172.046738,116.971466 
	C172.001328,116.962914 172.020462,116.872498 172.020462,116.872498 
M62.153233,105.223381 
	C65.258835,105.615746 68.364441,106.008110 71.643814,106.422432 
	C71.643814,102.508202 71.643814,99.492104 71.643814,96.516739 
	C68.262276,96.516739 65.243134,96.516739 62.012306,96.516739 
	C62.012306,99.368294 62.012306,101.831604 62.153233,105.223381 
M124.692108,106.123825 
	C127.081863,106.123825 129.471619,106.123825 131.815277,106.123825 
	C131.815277,102.432213 131.815277,99.528534 131.815277,96.448380 
	C128.512772,96.448380 125.495926,96.448380 121.257744,96.448380 
	C122.191376,100.034607 122.979210,103.060799 124.692108,106.123825 
z"/>
<path fill="#201F1F" opacity="1.000000" stroke="none" 
	d="
M32.003601,85.911842 
	C31.981764,86.374939 31.959929,86.838028 31.545326,87.527534 
	C30.766445,88.783005 30.061871,89.807175 30.045992,90.841919 
	C29.944254,97.471748 29.981819,104.103928 30.000072,110.735268 
	C30.006216,112.967255 30.118135,115.610313 26.878815,114.798386 
	C25.671539,114.495781 24.199574,112.294998 24.133986,110.899345 
	C23.838575,104.613403 24.108307,98.302689 23.921497,92.008408 
	C23.881636,90.665344 22.787418,89.353569 22.178940,88.027382 
	C22.145653,87.567345 22.112366,87.107300 22.031818,86.301353 
	C21.984560,85.955444 21.992540,86.022934 22.418472,86.058884 
	C25.897470,86.033836 28.950537,85.972839 32.003601,85.911842 
z"/>
<path fill="#0A1015" opacity="1.000000" stroke="none" 
	d="
M22.129623,88.491745 
	C22.787418,89.353569 23.881636,90.665344 23.921497,92.008408 
	C24.108307,98.302689 23.838575,104.613403 24.133986,110.899345 
	C24.199574,112.294998 25.671539,114.495781 26.878815,114.798386 
	C30.118135,115.610313 30.006216,112.967255 30.000072,110.735268 
	C29.981819,104.103928 29.944254,97.471748 30.045992,90.841919 
	C30.061871,89.807175 30.766445,88.783005 31.457447,87.863846 
	C31.799004,96.676704 31.835672,105.379669 31.640163,114.658264 
	C31.206133,115.427254 31.071341,115.659531 31.003613,115.930733 
	C28.272272,115.986160 25.540932,116.041588 22.356113,116.025467 
	C21.961859,106.954651 22.021082,97.955383 22.129623,88.491745 
z"/>
<path fill="#0C0E11" opacity="1.000000" stroke="none" 
	d="
M31.923233,156.376923 
	C34.606796,155.997299 37.288139,155.999710 40.408943,156.051743 
	C41.220768,159.456604 41.593132,162.811859 41.989075,166.617279 
	C41.566174,167.044678 41.119698,167.021912 39.905525,166.988556 
	C36.778435,166.940277 34.419044,166.902603 32.059654,166.864929 
	C32.009483,166.449341 31.959314,166.033752 31.913158,164.894897 
	C31.875290,162.453247 31.833406,160.734863 31.791523,159.016464 
	C31.834684,158.263962 31.877846,157.511459 31.923233,156.376923 
M39.997498,161.496826 
	C40.255936,158.973083 39.164841,157.489700 36.620766,158.135513 
	C35.590919,158.396942 34.217529,159.858612 34.173050,160.827896 
	C34.111893,162.160599 35.164082,163.544388 35.739254,164.906296 
	C37.155075,164.056442 38.570896,163.206604 39.997498,161.496826 
z"/>
<path fill="#1E1A17" opacity="1.000000" stroke="none" 
	d="
M24.000256,146.002045 
	C26.426697,146.121170 28.853138,146.240295 31.980244,146.393814 
	C31.980244,149.392792 31.980244,152.273132 31.991238,155.613861 
	C31.555105,156.102722 31.107979,156.131195 30.331955,155.632568 
	C30.000288,153.789810 30.407578,152.274139 29.888609,151.210281 
	C29.271221,149.944687 27.858328,149.067139 26.790119,148.021454 
	C25.863071,149.043350 24.493547,149.927200 24.120775,151.122025 
	C23.652880,152.621719 24.001835,154.376282 23.998260,156.020844 
	C23.559441,156.066483 23.120623,156.112122 22.359810,156.067947 
	C22.037674,152.946915 22.037533,149.915695 22.014893,146.443481 
	C21.992393,146.002502 21.966621,146.029922 22.304455,146.087585 
	C23.094944,146.097519 23.547600,146.049774 24.000256,146.002045 
z"/>
<path fill="#1A1B1C" opacity="1.000000" stroke="none" 
	d="
M24.422314,156.098831 
	C24.001835,154.376282 23.652880,152.621719 24.120775,151.122025 
	C24.493547,149.927200 25.863071,149.043350 26.790119,148.021454 
	C27.858328,149.067139 29.271221,149.944687 29.888609,151.210281 
	C30.407578,152.274139 30.000288,153.789810 30.004152,155.552704 
	C28.285620,156.058899 26.565992,156.117859 24.422314,156.098831 
z"/>
<path fill="#18191B" opacity="1.000000" stroke="none" 
	d="
M53.654778,45.931839 
	C56.448421,45.976688 58.906227,46.101292 61.975018,46.256866 
	C61.975018,49.250614 61.975018,52.173710 61.701611,55.572613 
	C61.249176,56.045097 61.070152,56.041767 60.446785,56.054321 
	C57.322216,56.065636 54.641991,56.061062 51.957726,55.596939 
	C51.989914,52.070843 52.026146,49.004292 52.062374,45.937740 
	C52.062374,45.937740 52.001507,45.995495 51.970345,46.023582 
	C52.399097,46.038311 52.859020,46.024948 53.654778,45.931839 
M58.267597,48.082005 
	C56.864048,48.769501 55.177540,49.195385 54.187996,50.265656 
	C53.756565,50.732292 54.406075,53.053997 55.194145,53.567844 
	C56.103233,54.160599 58.772400,53.922203 58.834747,53.639038 
	C59.210434,51.932835 59.057888,50.110329 58.267597,48.082005 
z"/> 
<path fill="#FDFEFD" opacity="1.000000" stroke="none" 
	d="
M141.943573,45.984886 
	C151.732788,45.995506 161.522018,46.006126 171.675232,45.973167 
	C172.052231,58.983166 172.065216,72.036743 172.032516,85.533516 
	C171.986847,85.976715 172.050201,85.929543 171.710144,86.004440 
	C170.914276,86.151428 170.458466,86.223518 169.579926,86.209686 
	C167.436493,86.179543 165.715775,86.235313 163.670502,86.192612 
	C162.897781,86.034874 162.449615,85.975616 162.001434,85.916359 
	C162.001434,85.916359 162.001465,85.992226 162.063690,85.540741 
	C162.065353,82.091606 162.004791,79.093956 162.036392,75.627068 
	C162.128555,68.926903 162.128555,62.695984 162.128555,55.989532 
	C155.077911,55.989532 148.500732,55.989532 141.965637,55.548836 
	C141.963303,52.741554 141.918900,50.374962 141.951706,47.672134 
	C142.038818,46.876812 142.048706,46.417728 142.025635,45.946823 
	C141.992691,45.935005 141.943573,45.984886 141.943573,45.984886 
z"/>
<path fill="#191A1B" opacity="1.000000" stroke="none" 
	d="
M180.009094,53.181004 
	C180.008835,62.472599 179.989899,71.285057 180.021500,80.097336 
	C180.029236,82.257446 179.958267,84.046051 176.976196,84.036682 
	C173.976669,84.027267 173.957611,82.197716 173.963791,80.060516 
	C173.990265,70.915665 173.944626,61.770508 173.997833,52.625889 
	C174.009506,50.619961 173.238861,48.098812 176.782364,47.966660 
	C180.599899,47.824295 179.942368,50.443798 180.009094,53.181004 
z"/> 
<path fill="#1A1B1D" opacity="1.000000" stroke="none" 
	d="
M148.244553,44.002594 
	C145.517258,44.155346 143.428268,43.655998 144.177490,40.890938 
	C144.497803,39.708782 146.366776,38.189655 147.589859,38.135769 
	C153.887100,37.858356 160.209839,37.856548 166.506592,38.139206 
	C167.705093,38.193008 168.826721,39.959908 169.983810,40.936409 
	C168.870331,41.956791 167.798386,43.800591 166.636398,43.859192 
	C160.674088,44.159916 154.688644,44.001320 148.244553,44.002594 
z"/>
<path fill="#1D1B1A" opacity="1.000000" stroke="none" 
	d="
M22.383881,119.167885 
	C22.248358,127.173592 22.112835,135.179306 21.985966,143.930328 
	C21.985285,145.127075 21.975954,145.578506 21.966621,146.029922 
	C21.966621,146.029922 21.992393,146.002502 22.004871,145.988403 
	C21.566322,146.009277 21.115299,146.044235 20.332150,146.007629 
	C20.001213,145.502747 20.002401,145.069443 20.001923,143.844070 
	C20.035820,134.284836 20.071386,125.517662 20.106953,116.750473 
	C20.763117,117.039749 21.419277,117.329018 22.140314,118.142738 
	C22.264753,118.834084 22.324316,119.000984 22.383881,119.167885 
z"/>
<path fill="#FCFCFC" opacity="1.000000" stroke="none" 
	d="
M51.592224,45.989384 
	C52.026146,49.004292 51.989914,52.070843 51.984505,55.573639 
	C52.015327,56.009880 52.048256,55.946846 51.578369,55.989708 
	C44.760654,56.032570 38.412823,56.032570 32.127460,56.032570 
	C32.127460,63.232025 32.127460,69.647072 32.042751,76.505219 
	C31.948776,79.963867 31.939508,82.979408 31.930241,85.994942 
	C31.930241,85.994942 32.005386,85.987137 32.004494,85.949493 
	C28.950537,85.972839 25.897470,86.033836 22.386028,86.069000 
	C21.904394,72.989395 21.881136,59.935623 21.890615,46.410240 
	C31.656260,45.972763 41.389168,46.006897 51.592224,45.989384 
z"/>
<path fill="#1A1B1D" opacity="1.000000" stroke="none" 
	d="
M19.943636,83.557068 
	C18.130527,83.948586 16.349773,83.869476 13.984223,83.764381 
	C13.984223,71.904137 13.984223,60.458611 13.977137,48.555428 
	C15.749567,48.097771 17.529083,48.097771 19.975990,48.097771 
	C19.975990,60.045437 19.975990,71.565941 19.943636,83.557068 
z"/>
<path fill="#DE403E" opacity="1.000000" stroke="none" 
	d="
M102.762413,25.901005 
	C105.607323,25.939936 108.264023,26.023726 111.355438,26.151245 
	C111.839355,35.155750 111.888580,44.116528 111.409958,53.539459 
	C101.924248,54.000324 92.966400,53.999039 84.004875,53.529251 
	C84.000351,46.064308 84.103119,39.065586 83.949348,32.072506 
	C83.884781,29.135733 84.717033,27.631863 87.876839,27.977398 
	C89.194908,28.121534 90.539467,28.023483 91.871979,28.035553 
	C92.044434,30.134001 92.216888,32.232449 92.498238,35.053207 
	C95.635162,35.775517 98.663193,35.775517 101.729240,35.775517 
	C101.729240,32.145176 101.729240,29.054794 101.729240,25.964411 
	C101.729240,25.964411 101.983215,25.869875 102.090584,25.953003 
	C102.197952,26.036131 102.574211,25.945864 102.762413,25.901005 
z"/>
<path fill="#512E13" opacity="1.000000" stroke="none" 
	d="
M101.365761,25.860891 
	C101.729240,29.054794 101.729240,32.145176 101.729240,35.775517 
	C98.663193,35.775517 95.635162,35.775517 92.534897,35.474876 
	C92.977539,30.784046 93.301132,26.357954 94.114487,22.023771 
	C94.386971,20.571768 95.908623,19.354181 96.859291,18.029446 
	C97.899384,18.928371 99.324745,19.637589 99.883980,20.773291 
	C100.615150,22.258171 100.661377,24.080320 101.365761,25.860891 
z"/>
<path fill="#DB4241" opacity="1.000000" stroke="none" 
	d="
M91.940681,27.720562 
	C90.539467,28.023483 89.194908,28.121534 87.876839,27.977398 
	C84.717033,27.631863 83.884781,29.135733 83.949348,32.072506 
	C84.103119,39.065586 84.000351,46.064308 84.100594,53.779938 
	C84.469025,54.962944 84.738060,55.426765 84.631310,55.978115 
	C83.497528,56.178844 82.739532,56.292042 81.941696,56.282524 
	C81.901848,56.159813 82.026764,55.934021 82.019165,55.701340 
	C82.011566,55.468658 81.906036,55.015167 81.906036,55.015167 
	C81.971138,45.698742 82.036240,36.382317 82.179108,26.614912 
	C85.184692,26.150635 88.112511,26.137337 91.481056,26.127439 
	C91.950981,26.555750 91.980186,26.980659 91.940681,27.720562 
z"/>
<path fill="#1A1B1C" opacity="1.000000" stroke="none" 
	d="
M20.091145,116.572739 
	C20.071386,125.517662 20.035820,134.284836 19.997395,143.519104 
	C18.207567,143.986191 16.420599,143.986191 13.999851,143.986191 
	C13.999851,134.963623 13.999851,126.520355 13.997349,117.618805 
	C15.757432,116.778961 17.520016,116.397400 19.683052,116.027023 
	C20.083506,116.038208 20.075338,116.395004 20.091145,116.572739 
z"/>
<path fill="#874C22" opacity="1.000000" stroke="none" 
	d="
M122.246223,126.004196 
	C125.260490,126.035019 128.274765,126.065849 131.713470,126.573326 
	C132.137909,129.976791 132.137909,132.903610 132.137909,136.056564 
	C135.779755,136.056564 138.896530,136.056564 142.013321,136.056564 
	C142.013321,136.056564 142.012238,135.982544 142.042328,136.249100 
	C142.155579,136.680893 142.238770,136.846115 142.233246,137.470795 
	C142.103271,143.641876 142.062012,149.353531 142.020752,155.065170 
	C132.211609,155.491928 132.211609,155.491928 131.930542,165.649109 
	C125.521278,166.142136 119.196609,166.182037 112.415833,166.348969 
	C111.959724,166.475983 111.827057,166.245941 111.949371,165.694611 
	C112.071678,162.245270 112.071678,159.347260 112.071678,155.978760 
	C115.773491,155.978760 118.814285,155.978760 121.921906,155.978760 
	C121.921906,149.059494 121.921906,142.640396 121.978737,135.853485 
	C121.996437,134.991669 121.957314,134.497635 121.964027,133.558456 
	C121.932823,130.722046 121.855789,128.330811 121.898270,125.936531 
	C122.017792,125.933495 122.246223,126.004196 122.246223,126.004196 
z"/>
<path fill="#FCFAF8" opacity="1.000000" stroke="none" 
	d="
M142.018311,155.255920 
	C142.062012,149.353531 142.103271,143.641876 142.463867,137.460617 
	C143.168228,136.769958 143.553238,136.548904 143.938263,136.327866 
	C146.398376,136.327866 148.858490,136.327866 152.144852,136.327866 
	C152.144852,141.969620 152.144852,147.518005 152.139786,153.785980 
	C152.187027,154.672058 152.239319,154.838562 152.291595,155.005081 
	C152.252090,155.203644 152.212601,155.402191 151.834320,155.898392 
	C151.310303,156.262375 151.125061,156.328735 150.939804,156.395111 
	C150.939804,156.395111 150.500839,156.303558 149.842346,156.230621 
	C146.785294,156.047546 144.386719,155.937393 141.988144,155.827240 
	C141.988144,155.827240 142.015854,155.446686 142.018311,155.255920 
z"/>
<path fill="#EA9758" opacity="1.000000" stroke="none" 
	d="
M141.967346,156.201523 
	C144.386719,155.937393 146.785294,156.047546 149.621338,156.268372 
	C147.720779,156.928528 145.382751,157.477997 142.633194,158.035400 
	C142.129974,157.554184 142.038269,157.064987 141.967346,156.201523 
z"/>
<path fill="#EA9758" opacity="1.000000" stroke="none" 
	d="
M142.196411,164.250000 
	C142.595963,164.183685 142.695007,164.449081 142.422424,164.896530 
	C142.245224,164.835663 142.193619,164.670044 142.196411,164.250000 
z"/>
<path fill="#FEFEFE" opacity="1.000000" stroke="none" 
	d="
M41.567223,155.989441 
	C41.544472,149.544174 41.965088,143.184738 42.431606,136.131241 
	C45.277035,136.131241 48.201393,136.131241 51.575565,136.322235 
	C52.071445,136.687347 52.117504,136.861465 52.070778,137.493347 
	C51.970070,143.977798 51.962143,150.004486 51.954212,156.031174 
	C51.954212,156.031174 52.001041,156.038559 52.012348,156.018341 
	C48.685966,156.023834 45.348274,156.049561 41.567223,155.989441 
z"/>
<path fill="#894E25" opacity="1.000000" stroke="none" 
	d="
M52.163559,137.035568 
	C52.117504,136.861465 52.071445,136.687347 52.028732,136.243134 
	C52.032082,135.973068 51.973743,135.993729 52.438522,136.065460 
	C55.829514,136.137177 58.755726,136.137177 61.859791,136.137177 
	C61.859791,132.406387 61.859791,129.279938 61.859791,126.153481 
	C64.899910,126.105270 67.940025,126.057060 71.472839,126.417374 
	C72.014832,129.563736 72.064125,132.301575 72.104141,135.334259 
	C72.105682,135.825455 72.116493,136.021805 72.098793,136.672318 
	C72.070290,143.345123 72.070290,149.563766 72.070290,156.264374 
	C75.567017,156.264374 78.609589,156.264374 81.983765,156.264374 
	C81.983765,159.855164 81.983765,162.958099 81.983765,166.061035 
	C81.983765,166.061035 82.176094,166.251877 82.108383,166.369202 
	C75.646698,166.343674 69.252731,166.200821 62.387093,166.005585 
	C61.915424,162.895142 61.915424,159.837097 61.915424,156.219971 
	C59.338360,156.219971 57.110008,156.219971 54.450005,155.662476 
	C54.014462,150.659088 54.170124,146.204285 53.922318,141.772034 
	C53.832493,140.165451 52.777927,138.612823 52.163559,137.035568 
z"/>
<path fill="#7F4317" opacity="1.000000" stroke="none" 
	d="
M52.070778,137.493347 
	C52.777927,138.612823 53.832493,140.165451 53.922318,141.772034 
	C54.170124,146.204285 54.014462,150.659088 54.011925,155.575989 
	C53.547863,156.091736 53.090237,156.136475 52.293411,156.106201 
	C51.962143,150.004486 51.970070,143.977798 52.070778,137.493347 
z"/>
<path fill="#EA9758" opacity="1.000000" stroke="none" 
	d="
M150.966095,156.601151 
	C151.125061,156.328735 151.310303,156.262375 151.791016,156.198944 
	C152.086472,156.201874 152.086868,156.569260 152.085419,156.752945 
	C151.912415,156.983536 151.740845,157.030426 151.311768,157.147644 
	C151.054245,157.218002 150.992371,156.807190 150.966095,156.601151 
z"/>
<path fill="#FDFDFC" opacity="1.000000" stroke="none" 
	d="
M82.443283,166.166901 
	C81.983765,162.958099 81.983765,159.855164 81.983765,156.264374 
	C78.609589,156.264374 75.567017,156.264374 72.070290,156.264374 
	C72.070290,149.563766 72.070290,143.345123 72.324989,136.650116 
	C72.579689,136.173752 72.994583,135.983841 73.424896,136.079010 
	C75.904198,136.115387 77.953201,136.056595 80.302467,136.078979 
	C80.985390,135.962723 81.368050,135.765320 81.750710,135.567917 
	C81.557877,135.352264 81.365051,135.136627 81.130928,134.483307 
	C81.144882,131.422897 81.200119,128.800156 81.255363,126.177406 
	C84.539841,126.188576 87.824326,126.199745 91.560867,126.689728 
	C92.012939,130.098007 92.012939,133.027496 92.012939,135.938705 
	C95.646980,135.938705 98.714134,135.938705 102.066559,135.938705 
	C102.066559,132.551758 102.066559,129.429413 102.066559,126.307068 
	C105.037224,126.258354 108.007896,126.209641 111.504860,126.606842 
	C112.031158,129.996445 112.031158,132.940140 112.031158,136.221298 
	C115.671669,136.221298 118.796791,136.221298 121.921906,136.221298 
	C121.921906,142.640396 121.921906,149.059494 121.921906,155.978760 
	C118.814285,155.978760 115.773491,155.978760 112.071678,155.978760 
	C112.071678,159.347260 112.071678,162.245270 112.045303,165.602814 
	C102.313560,166.132477 92.608185,166.202621 82.443283,166.166901 
z"/>
<path fill="#1A1B1D" opacity="1.000000" stroke="none" 
	d="
M37.000523,43.998367 
	C33.520493,43.997066 30.496820,44.278618 27.571762,43.864174 
	C26.286776,43.682114 25.202702,42.082054 24.027405,41.125835 
	C25.118967,40.086807 26.172485,38.199944 27.308384,38.148972 
	C33.759850,37.859478 40.237698,37.859512 46.689175,38.148899 
	C47.825512,38.199867 48.879547,40.085648 49.971592,41.124092 
	C48.796974,42.080894 47.713696,43.682026 46.429260,43.864105 
	C43.504253,44.278732 40.480549,43.997082 37.000523,43.998367 
z"/>
<path fill="#F5893E" opacity="1.000000" stroke="none" 
	d="
M132.048737,67.995728 
	C109.616516,67.995728 87.184296,67.995728 64.885147,67.995728 
	C64.110275,70.966705 63.474323,73.405045 62.447830,75.951767 
	C62.057293,76.060143 62.028149,76.026688 62.044273,75.592239 
	C62.297428,72.075127 62.534462,68.992447 63.080696,65.975136 
	C63.595848,65.996094 63.801804,65.951691 64.253891,65.972061 
	C64.664841,65.996140 64.829651,65.955444 65.455948,66.005630 
	C75.280418,66.037308 84.643410,65.978104 94.334686,65.994827 
	C95.106422,66.019951 95.549889,65.969162 96.453262,66.008514 
	C101.944244,66.038376 106.975311,65.978096 112.334625,65.993942 
	C113.106400,66.019516 113.549919,65.968948 114.453316,66.008545 
	C119.943222,66.046959 124.973244,65.995201 130.318573,66.019852 
	C131.055756,66.026543 131.477600,65.956810 131.921570,66.238747 
	C131.978699,67.058846 132.013718,67.527290 132.048737,67.995728 
z"/>
<path fill="#1B1A1C" opacity="1.000000" stroke="none" 
	d="
M80.002197,135.997818 
	C77.953201,136.056595 75.904198,136.115387 73.335320,135.873245 
	C72.645363,135.310471 72.411354,135.132828 72.113419,135.039413 
	C72.064125,132.301575 72.014832,129.563736 71.921356,126.369507 
	C71.877174,125.913132 72.055702,125.881630 72.467995,125.848572 
	C73.247543,122.921890 73.614792,120.028267 73.982040,117.134636 
	C75.714928,117.090302 77.447807,117.045967 79.738327,117.285461 
	C80.583824,117.738281 80.871696,117.907280 81.159569,118.076279 
	C81.148331,120.477303 81.137093,122.878326 81.190613,125.728378 
	C81.200119,128.800156 81.144882,131.422897 80.879585,134.596237 
	C80.447090,135.430496 80.224648,135.714157 80.002197,135.997818 
z"/>
<path fill="#1D1B1A" opacity="1.000000" stroke="none" 
	d="
M171.710144,86.004440 
	C172.091782,95.969177 172.133377,106.008812 172.133560,116.514236 
	C160.188492,117.009148 162.305908,118.382309 162.134186,107.165321 
	C162.030609,100.398689 162.095184,93.629471 162.042816,86.388885 
	C162.449615,85.975616 162.897781,86.034874 163.672012,86.642593 
	C163.998306,94.806511 164.012344,102.421997 163.989807,110.037392 
	C163.983612,112.136490 163.933746,114.007568 166.950089,114.026268 
	C169.898621,114.044533 170.024353,112.309258 170.014252,110.135223 
	C169.977341,102.188843 170.001495,94.242172 170.002640,86.295616 
	C170.458466,86.223518 170.914276,86.151428 171.710144,86.004440 
z"/>
<path fill="#0D1419" opacity="1.000000" stroke="none" 
	d="
M161.944229,76.096313 
	C162.004791,79.093956 162.065353,82.091606 162.101608,85.539680 
	C156.030441,86.018158 149.983582,86.046204 143.392654,85.811813 
	C142.709641,85.296280 142.510101,85.107086 142.249969,84.981804 
	C142.205124,79.631203 142.160294,74.280609 142.072983,68.237198 
	C142.030518,67.544388 142.040482,67.087288 142.136292,66.854614 
	C142.295700,66.466713 142.359299,66.311485 142.708282,66.151283 
	C144.327637,66.083710 145.661591,66.021103 147.389008,66.006134 
	C149.166565,66.698822 150.550674,67.343864 151.490814,67.993065 
	C148.806061,68.112503 146.565262,68.227783 144.435379,68.337357 
	C142.648407,83.902718 143.292786,84.713776 156.318100,84.000137 
	C156.484100,83.991035 156.710175,84.065887 156.808136,83.983116 
	C157.874908,83.081757 158.921692,82.156715 159.973907,81.238129 
	C158.916946,80.160896 158.001114,78.866806 156.766113,78.063126 
	C155.328964,77.127892 153.612381,76.622047 152.418304,75.982727 
	C155.211029,75.997147 157.602539,75.958710 160.317871,75.960907 
	C161.075882,76.033134 161.510056,76.064728 161.944229,76.096313 
z"/>
<path fill="#1C1B1B" opacity="1.000000" stroke="none" 
	d="
M32.386116,86.041824 
	C31.939508,82.979408 31.948776,79.963867 32.490898,76.487991 
	C35.998009,76.202393 38.972263,76.377129 41.936829,76.541374 
	C41.927147,76.530876 41.898075,76.513062 41.945381,76.883003 
	C41.986763,80.166328 41.980839,83.079704 41.974915,85.993088 
	C38.930607,86.024963 35.886299,86.056839 32.386116,86.041824 
z"/>
<path fill="#FDFBF7" opacity="1.000000" stroke="none" 
	d="
M62.082771,104.759155 
	C62.012306,101.831604 62.012306,99.368294 62.012306,96.516739 
	C65.243134,96.516739 68.262276,96.516739 71.643814,96.516739 
	C71.643814,99.492104 71.643814,102.508202 71.643814,106.422432 
	C68.364441,106.008110 65.258835,105.615746 62.082771,104.759155 
z"/>
<path fill="#FDFBF7" opacity="1.000000" stroke="none" 
	d="
M124.229576,106.105408 
	C122.979210,103.060799 122.191376,100.034607 121.257744,96.448380 
	C125.495926,96.448380 128.512772,96.448380 131.815277,96.448380 
	C131.815277,99.528534 131.815277,102.432213 131.815277,106.123825 
	C129.471619,106.123825 127.081863,106.123825 124.229576,106.105408 
z"/>
<path fill="#FCFAF6" opacity="1.000000" stroke="none" 
	d="
M61.410378,126.148468 
	C61.859791,129.279938 61.859791,132.406387 61.859791,136.137177 
	C58.755726,136.137177 55.829514,136.137177 52.443298,136.096054 
	C51.983299,132.974274 51.983299,129.893616 51.983299,126.143448 
	C55.197296,126.143448 58.079128,126.143448 61.410378,126.148468 
z"/>
<path fill="#FCF8F6" opacity="1.000000" stroke="none" 
	d="
M142.047058,135.596161 
	C138.896530,136.056564 135.779755,136.056564 132.137909,136.056564 
	C132.137909,132.903610 132.137909,129.976791 132.172180,126.607483 
	C135.279892,126.164986 138.353348,126.164986 142.080811,126.164986 
	C142.080811,129.386795 142.080811,132.261276 142.047058,135.596161 
z"/>
<path fill="#1B1815" opacity="1.000000" stroke="none" 
	d="
M101.612335,126.239426 
	C102.066559,129.429413 102.066559,132.551758 102.066559,135.938705 
	C98.714134,135.938705 95.646980,135.938705 92.012939,135.938705 
	C92.012939,133.027496 92.012939,130.098007 92.011749,126.736145 
	C95.059738,126.259766 98.108925,126.215767 101.612335,126.239426 
M94.928947,128.328354 
	C93.724380,130.477432 92.858841,132.841553 96.000641,133.761642 
	C97.025169,134.061676 99.502945,132.644989 99.797318,131.589783 
	C100.714508,128.301926 98.468239,127.701759 94.928947,128.328354 
z"/>
<path fill="#151617" opacity="1.000000" stroke="none" 
	d="
M121.978737,135.853485 
	C118.796791,136.221298 115.671669,136.221298 112.031158,136.221298 
	C112.031158,132.940140 112.031158,129.996445 111.949158,126.611168 
	C111.947891,124.409630 112.028618,122.649696 112.467934,120.448135 
	C113.213417,119.994835 113.600319,119.983162 113.992355,120.440338 
	C113.999672,122.702606 113.986603,124.496201 114.006592,126.289421 
	C114.104614,135.084396 112.973595,133.884308 121.918190,134.003616 
	C121.957314,134.497635 121.996437,134.991669 121.978737,135.853485 
z"/>
<path fill="#F5893E" opacity="1.000000" stroke="none" 
	d="
M42.363781,85.908447 
	C41.980839,83.079704 41.986763,80.166328 42.396507,76.779800 
	C49.209602,76.213333 55.618877,76.120010 62.028149,76.026688 
	C62.028149,76.026688 62.057293,76.060143 62.072571,76.076706 
	C60.420368,76.729126 58.798031,77.595078 57.072224,77.933670 
	C55.468155,78.248367 53.738949,78.144302 52.090698,77.974136 
	C46.947369,77.443100 42.687065,77.832069 43.750820,84.837631 
	C43.792110,85.109566 43.101971,85.492561 42.363781,85.908447 
z"/>
<path fill="#241E1A" opacity="1.000000" stroke="none" 
	d="
M113.987213,119.971497 
	C113.600319,119.983162 113.213417,119.994835 112.536385,120.014320 
	C111.580551,117.391632 112.115219,115.804428 115.320518,116.096504 
	C117.288437,116.275833 119.286018,116.129684 122.127251,116.129684 
	C122.127251,119.276176 122.127251,122.184921 122.186737,125.548935 
	C122.246223,126.004196 122.017792,125.933495 121.532990,125.847694 
	C120.700195,124.408852 120.442444,123.023880 119.978157,121.711990 
	C119.537048,120.465584 118.817497,118.257072 118.329475,118.286407 
	C116.853622,118.375122 115.430740,119.345016 113.987213,119.971497 
z"/>
<path fill="#C8773C" opacity="1.000000" stroke="none" 
	d="
M142.422882,66.156258 
	C142.359299,66.311485 142.295700,66.466713 141.927872,66.837189 
	C141.623642,67.052444 141.206406,67.076736 141.206406,67.076736 
	C138.440506,67.380066 135.674606,67.683403 132.478729,67.991226 
	C132.013718,67.527290 131.978699,67.058846 131.954254,66.203278 
	C131.964798,65.816154 132.058334,65.831192 132.500275,65.917229 
	C135.932922,66.008278 138.923615,66.013290 142.044556,66.041412 
	C142.174789,66.064522 142.422882,66.156258 142.422882,66.156258 
z"/>
<path fill="#090D13" opacity="1.000000" stroke="none" 
	d="
M73.648514,117.093033 
	C73.614792,120.028267 73.247543,122.921890 72.509453,125.929184 
	C72.530739,123.045700 72.922867,120.048561 73.648514,117.093033 
z"/>
<path fill="#ED853D" opacity="1.000000" stroke="none" 
	d="
M22.304455,146.087585 
	C21.975954,145.578506 21.985285,145.127075 22.064236,144.344101 
	C22.734913,144.468353 23.335970,144.924149 23.968641,145.691010 
	C23.547600,146.049774 23.094944,146.097519 22.304455,146.087585 
z"/>
<path fill="#090D13" opacity="1.000000" stroke="none" 
	d="
M81.384644,117.933044 
	C80.871696,117.907280 80.583824,117.738281 80.167267,117.352097 
	C80.562294,117.353210 81.085999,117.571503 81.384644,117.933044 
z"/>
<path fill="#F7F4F1" opacity="1.000000" stroke="none" 
	d="
M143.614410,136.222885 
	C143.553238,136.548904 143.168228,136.769958 142.552582,137.001175 
	C142.238770,136.846115 142.155579,136.680893 142.005402,136.246338 
	C142.389130,136.023987 142.839844,136.070953 143.614410,136.222885 
z"/>
<path fill="#35261A" opacity="1.000000" stroke="none" 
	d="
M141.191650,67.319580 
	C141.206406,67.076736 141.623642,67.052444 141.832062,67.069870 
	C142.040482,67.087288 142.030518,67.544388 142.015656,67.772522 
	C141.637573,68.020981 141.362930,67.874901 141.191650,67.319580 
z"/>
<path fill="#EA9758" opacity="1.000000" stroke="none" 
	d="
M152.420837,154.901550 
	C152.239319,154.838562 152.187027,154.672058 152.194397,154.250687 
	C152.605911,154.183655 152.704575,154.451050 152.420837,154.901550 
z"/>
<path fill="#35261A" opacity="1.000000" stroke="none" 
	d="
M142.211487,85.237404 
	C142.510101,85.107086 142.709641,85.296280 142.929443,85.742035 
	C142.731216,85.787460 142.452103,85.640228 142.211487,85.237404 
z"/>
<path fill="#201F1F" opacity="1.000000" stroke="none" 
	d="
M31.256794,115.919983 
	C31.071341,115.659531 31.206133,115.427254 31.579102,115.123901 
	C31.670135,115.312347 31.590055,115.610786 31.256794,115.919983 
z"/>
<path fill="#ED853D" opacity="1.000000" stroke="none" 
	d="
M22.653240,119.074265 
	C22.324316,119.000984 22.264753,118.834084 22.249271,118.405701 
	C22.503103,118.423027 22.712852,118.701843 22.653240,119.074265 
z"/>
<path fill="#1A1B1C" opacity="1.000000" stroke="none" 
	d="
M39.992107,161.926788 
	C38.570896,163.206604 37.155075,164.056442 35.739258,164.906296 
	C35.164082,163.544388 34.111893,162.160599 34.173050,160.827896 
	C34.217529,159.858612 35.590919,158.396942 36.620766,158.135513 
	C39.164841,157.489700 40.255936,158.973083 39.992107,161.926788 
z"/>
<path fill="#E1E1E2" opacity="1.000000" stroke="none" 
	d="
M80.007851,55.931332 
	C80.007851,55.931332 80.002853,55.456699 80.009247,55.218712 
	C80.436806,54.987419 80.857979,54.994122 81.592590,55.007996 
	C81.906036,55.015167 82.011566,55.468658 81.686172,55.785839 
	C80.909805,56.045788 80.458824,55.988560 80.007851,55.931332 
z"/>
<path fill="#0C0E11" opacity="1.000000" stroke="none" 
	d="
M79.550400,56.035049 
	C80.458824,55.988560 80.909805,56.045788 81.693771,56.018520 
	C82.026764,55.934021 81.901848,56.159813 81.945465,56.548386 
	C81.994148,57.291409 81.999214,57.645855 81.535645,58.003761 
	C75.550858,58.007217 70.034698,58.007217 64.019554,58.007217 
	C64.019554,60.466747 64.019554,62.230629 64.014343,64.313293 
	C64.008675,65.057144 64.008217,65.482216 64.007759,65.907280 
	C63.801804,65.951691 63.595848,65.996094 62.936653,65.973755 
	C62.483414,65.907013 62.197155,65.950195 62.115913,65.518387 
	C61.653492,62.070530 61.272308,59.054482 60.891125,56.038433 
	C61.070152,56.041767 61.249176,56.045097 61.696198,56.030575 
	C62.417839,56.036449 62.871487,56.060173 63.658413,56.006569 
	C69.025452,55.999084 74.059204,56.068928 79.550400,56.035049 
z"/>
<path fill="#FAFAF9" opacity="1.000000" stroke="none" 
	d="
M60.446785,56.054321 
	C61.272308,59.054482 61.653492,62.070530 61.651436,65.566818 
	C58.184238,66.011192 55.100281,65.975334 51.984314,65.488617 
	C51.984287,62.007465 52.016273,58.977154 52.048256,55.946846 
	C52.048256,55.946846 52.015327,56.009880 51.988548,56.033180 
	C54.641991,56.061062 57.322216,56.065636 60.446785,56.054321 
z"/>
<path fill="#1A1B1C" opacity="1.000000" stroke="none" 
	d="
M58.674866,48.204376 
	C59.057888,50.110329 59.210434,51.932835 58.834747,53.639038 
	C58.772400,53.922203 56.103233,54.160599 55.194145,53.567844 
	C54.406075,53.053997 53.756565,50.732292 54.187996,50.265656 
	C55.177540,49.195385 56.864048,48.769501 58.674866,48.204376 
z"/>
<path fill="#1A1B1D" opacity="1.000000" stroke="none" 
	d="
M169.579926,86.209686 
	C170.001495,94.242172 169.977341,102.188843 170.014252,110.135223 
	C170.024353,112.309258 169.898621,114.044533 166.950089,114.026268 
	C163.933746,114.007568 163.983612,112.136490 163.989807,110.037392 
	C164.012344,102.421997 163.998306,94.806511 163.996552,86.741074 
	C165.715775,86.235313 167.436493,86.179543 169.579926,86.209686 
z"/>
<path fill="#864D25" opacity="1.000000" stroke="none" 
	d="
M162.036392,75.627068 
	C161.510056,76.064728 161.075882,76.033134 160.320587,75.499603 
	C160.000702,70.862946 159.766678,66.710793 160.071533,62.598591 
	C160.357712,58.738285 158.776657,57.498497 155.197754,57.973804 
	C154.222641,58.103306 153.215698,57.993298 152.223373,57.993217 
	C142.859818,57.992447 142.859818,57.992447 146.995544,65.958496 
	C145.661591,66.021103 144.327637,66.083710 142.708282,66.151283 
	C142.422882,66.156258 142.174789,66.064522 142.125290,65.597641 
	C141.714935,62.342823 141.354095,59.554897 141.067947,56.557110 
	C141.336884,56.083797 141.597183,55.964558 141.923553,55.989532 
	C148.500732,55.989532 155.077911,55.989532 162.128555,55.989532 
	C162.128555,62.695984 162.128555,68.926903 162.036392,75.627068 
z"/>
<path fill="#201F1F" opacity="1.000000" stroke="none" 
	d="
M132.141449,46.117981 
	C135.110077,46.087128 138.130112,46.060635 141.604370,45.996391 
	C142.048706,46.417728 142.038818,46.876812 141.631912,47.660496 
	C140.808365,47.992729 140.381821,48.000366 139.532074,48.002281 
	C133.423462,48.137489 133.022278,48.719669 135.206909,54.266121 
	C136.961594,55.305969 138.485687,56.073116 139.594788,56.913334 
	C136.774429,56.664860 134.369095,56.343319 132.021027,55.691109 
	C132.009872,54.918976 131.941452,54.477512 131.992004,53.612732 
	C132.140427,50.868046 132.169907,48.546673 132.199371,46.225296 
	C132.199371,46.225296 132.192856,46.122337 132.141449,46.117981 
z"/>
<path fill="#101318" opacity="1.000000" stroke="none" 
	d="
M139.955292,48.007999 
	C140.381821,48.000366 140.808365,47.992729 141.554688,47.996735 
	C141.918900,50.374962 141.963303,52.741554 141.965637,55.548836 
	C141.597183,55.964558 141.336884,56.083797 140.827728,56.655384 
	C140.345139,56.922436 140.177475,56.881351 140.009796,56.840267 
	C138.485687,56.073116 136.961594,55.305969 135.631927,54.267548 
	C141.107483,54.692539 139.899078,50.914291 139.955292,48.007999 
z"/>
<path fill="#EB4240" opacity="1.000000" stroke="none" 
	d="
M112.050888,54.788452 
	C112.141037,55.049194 112.030800,55.496220 111.567337,55.781677 
	C102.404953,56.008289 93.706024,55.949436 85.007103,55.890587 
	C84.738060,55.426765 84.469025,54.962944 84.104263,54.248436 
	C92.966400,53.999039 101.924248,54.000324 111.334702,54.002766 
	C111.845108,54.178516 111.902924,54.353115 112.050888,54.788452 
z"/>
<path fill="#864A20" opacity="1.000000" stroke="none" 
	d="
M51.578369,55.989708 
	C52.016273,58.977154 51.984287,62.007465 51.528187,65.524590 
	C48.203449,66.011406 45.302826,66.011406 41.946514,66.011406 
	C41.946514,70.030472 41.946514,73.291176 41.946514,76.551872 
	C38.972263,76.377129 35.998009,76.202393 32.575607,76.044876 
	C32.127460,69.647072 32.127460,63.232025 32.127460,56.032570 
	C38.412823,56.032570 44.760654,56.032570 51.578369,55.989708 
z"/>
<path fill="#061719" opacity="1.000000" stroke="none" 
	d="
M84.631310,55.978115 
	C93.706024,55.949436 102.404953,56.008289 111.572739,56.011826 
	C112.041595,55.956509 112.080284,56.056370 112.020248,56.401833 
	C111.973244,57.165211 111.986275,57.583122 111.530693,58.000668 
	C101.376144,58.000301 91.690208,58.000305 82.004272,58.000305 
	C81.999214,57.645855 81.994148,57.291409 81.985313,56.671097 
	C82.739532,56.292042 83.497528,56.178844 84.631310,55.978115 
z"/>
<path fill="#1A191C" opacity="1.000000" stroke="none" 
	d="
M113.992355,120.440338 
	C115.430740,119.345016 116.853622,118.375122 118.329475,118.286407 
	C118.817497,118.257072 119.537048,120.465584 119.978157,121.711990 
	C120.442444,123.023880 120.700195,124.408852 121.413475,125.850731 
	C121.855789,128.330811 121.932823,130.722046 121.964027,133.558456 
	C112.973595,133.884308 114.104614,135.084396 114.006592,126.289421 
	C113.986603,124.496201 113.999672,122.702606 113.992355,120.440338 
z"/>
<path fill="#090D13" opacity="1.000000" stroke="none" 
	d="
M72.104141,135.334259 
	C72.411354,135.132828 72.645363,135.310471 72.905014,135.778076 
	C72.994583,135.983841 72.579689,136.173752 72.353493,136.195953 
	C72.116493,136.021805 72.105682,135.825455 72.104141,135.334259 
z"/>
<path fill="#090D13" opacity="1.000000" stroke="none" 
	d="
M80.302467,136.078979 
	C80.224648,135.714157 80.447090,135.430496 80.920876,135.033905 
	C81.365051,135.136627 81.557877,135.352264 81.750710,135.567917 
	C81.368050,135.765320 80.985390,135.962723 80.302467,136.078979 
z"/>
<path fill="#1A1B1D" opacity="1.000000" stroke="none" 
	d="
M81.535645,58.003761 
	C91.690208,58.000305 101.376144,58.000301 111.998703,58.004776 
	C118.627815,58.021847 124.320320,58.034443 130.008453,58.485786 
	C130.003799,61.264168 130.003540,63.603802 130.003265,65.943436 
	C124.973244,65.995201 119.943222,66.046959 114.413773,65.718590 
	C113.594711,65.030342 113.275078,64.722229 112.955444,64.414116 
	C112.639084,64.915344 112.322723,65.416573 112.006363,65.917816 
	C106.975311,65.978096 101.944244,66.038376 96.413681,65.718536 
	C95.594414,65.030426 95.274635,64.722435 94.954865,64.414444 
	C94.638718,64.915932 94.322563,65.417419 94.006409,65.918900 
	C84.643410,65.978104 75.280418,66.037308 65.435226,65.718842 
	C64.641861,64.892281 64.330711,64.443398 64.019554,63.994511 
	C64.019554,62.230629 64.019554,60.466747 64.019554,58.007217 
	C70.034698,58.007217 75.550858,58.007217 81.535645,58.003761 
z"/>
<path fill="#1C1D1E" opacity="1.000000" stroke="none" 
	d="
M41.936829,76.541374 
	C41.946514,73.291176 41.946514,70.030472 41.946514,66.011406 
	C45.302826,66.011406 48.203449,66.011406 51.560196,65.975433 
	C55.100281,65.975334 58.184238,66.011192 61.732674,65.998627 
	C62.197155,65.950195 62.483414,65.907013 62.627457,65.908394 
	C62.534462,68.992447 62.297428,72.075127 62.044273,75.592239 
	C55.618877,76.120010 49.209602,76.213333 42.349205,76.409859 
	C41.898075,76.513062 41.927147,76.530876 41.936829,76.541374 
z"/>
<path fill="#0F161B" opacity="1.000000" stroke="none" 
	d="
M130.318573,66.019852 
	C130.003540,63.603802 130.003799,61.264168 130.252701,58.373451 
	C130.966980,57.557095 131.432617,57.291824 131.976440,57.465088 
	C132.055862,60.546146 132.057098,63.188667 132.058334,65.831192 
	C132.058334,65.831192 131.964798,65.816154 131.932129,65.851624 
	C131.477600,65.956810 131.055756,66.026543 130.318573,66.019852 
z"/>
<path fill="#0F161B" opacity="1.000000" stroke="none" 
	d="
M94.334686,65.994827 
	C94.322563,65.417419 94.638718,64.915932 94.954865,64.414444 
	C95.274635,64.722435 95.594414,65.030426 95.953766,65.628387 
	C95.549889,65.969162 95.106422,66.019951 94.334686,65.994827 
z"/>
<path fill="#0F161B" opacity="1.000000" stroke="none" 
	d="
M112.334625,65.993942 
	C112.322723,65.416573 112.639084,64.915344 112.955444,64.414116 
	C113.275078,64.722229 113.594711,65.030342 113.953888,65.628418 
	C113.549919,65.968948 113.106400,66.019516 112.334625,65.993942 
z"/>
<path fill="#0F161B" opacity="1.000000" stroke="none" 
	d="
M64.014343,64.313293 
	C64.330711,64.443398 64.641861,64.892281 64.973740,65.627953 
	C64.829651,65.955444 64.664841,65.996140 64.253891,65.972061 
	C64.008217,65.482216 64.008675,65.057144 64.014343,64.313293 
z"/>
<path fill="#85491F" opacity="1.000000" stroke="none" 
	d="
M147.389008,66.006142 
	C142.859818,57.992447 142.859818,57.992447 152.223373,57.993217 
	C153.215698,57.993298 154.222641,58.103306 155.197754,57.973804 
	C158.776657,57.498497 160.357712,58.738285 160.071533,62.598591 
	C159.766678,66.710793 160.000702,70.862946 159.996735,75.458969 
	C157.602539,75.958710 155.211029,75.997147 152.431335,75.545189 
	C152.007019,72.699501 151.970886,70.344200 151.934753,67.988907 
	C150.550674,67.343864 149.166565,66.698822 147.389008,66.006142 
z"/>
<path fill="#1A1B1D" opacity="1.000000" stroke="none" 
	d="
M151.490814,67.993065 
	C151.970886,70.344200 152.007019,72.699501 152.030106,75.492325 
	C153.612381,76.622047 155.328964,77.127892 156.766113,78.063126 
	C158.001114,78.866806 158.916946,80.160896 159.973907,81.238129 
	C158.921692,82.156715 157.874908,83.081757 156.808136,83.983116 
	C156.710175,84.065887 156.484100,83.991035 156.318100,84.000137 
	C143.292786,84.713776 142.648407,83.902718 144.435379,68.337357 
	C146.565262,68.227783 148.806061,68.112503 151.490814,67.993065 
z"/>
<path fill="#1A191C" opacity="1.000000" stroke="none" 
	d="
M95.336578,128.205048 
	C98.468239,127.701759 100.714508,128.301926 99.797318,131.589783 
	C99.502945,132.644989 97.025169,134.061676 96.000641,133.761642 
	C92.858841,132.841553 93.724380,130.477432 95.336578,128.205048 
z"/>
<path fill="#FAFAF9" opacity="1.000000" stroke="none" 
	d="
M132.500275,65.917229 
	C132.057098,63.188667 132.055862,60.546146 132.083099,57.211708 
	C132.097137,56.337090 132.082672,56.154385 132.068222,55.971684 
	C132.068222,55.971684 131.996521,55.957336 131.980133,55.989555 
	C134.369095,56.343319 136.774429,56.664860 139.594788,56.913334 
	C140.177475,56.881351 140.345139,56.922436 140.753021,56.865242 
	C141.354095,59.554897 141.714935,62.342823 141.995056,65.574524 
	C138.923615,66.013290 135.932922,66.008278 132.500275,65.917229 
z"/>
<path fill="#1A1B1D" opacity="1.000000" stroke="none" 
	d="
M139.532074,48.002281 
	C139.899078,50.914291 141.107483,54.692539 135.401367,53.994846 
	C133.022278,48.719669 133.423462,48.137489 139.532074,48.002281 
z"/>
<path fill="#383032" opacity="1.000000" stroke="none" 
	d="
M131.596802,56.009354 
	C132.082672,56.154385 132.097137,56.337090 132.004929,56.773178 
	C131.432617,57.291824 130.966980,57.557095 130.257080,57.934704 
	C124.320320,58.034443 118.627815,58.021847 112.467316,58.005146 
	C111.986275,57.583122 111.973244,57.165211 111.977692,56.434334 
	C118.371902,56.096592 124.748634,56.071804 131.596802,56.009354 
z"/>
</svg>